<svg width="427" height="427" viewBox="0 0 427 427" fill="none" xmlns="http://www.w3.org/2000/svg">
<path d="M427 213.5C427 258.587 412.726 302.516 386.225 338.992C359.724 375.468 322.355 402.618 279.475 416.551C236.595 430.483 190.405 430.483 147.525 416.551C104.645 402.618 67.2762 375.468 40.7749 338.992L213.5 213.5H427Z" fill="url(#paint0_linear_0_1)"/>
<path d="M316.405 26.4362C349.906 44.8656 377.844 71.9538 397.299 104.871C416.753 137.788 427.011 175.325 427 213.561L213.5 213.5L316.405 26.4362Z" fill="url(#paint1_linear_0_1)"/>
<path d="M187.165 1.63047C231.761 -3.91285 276.969 4.75743 316.351 26.4064L213.5 213.5L187.165 1.63047Z" fill="url(#paint2_linear_0_1)"/>
<path d="M10.5096 147.34C24.8766 103.259 53.2022 65.0534 91.2053 38.4964L213.5 213.5L10.5096 147.34Z" fill="url(#paint3_linear_0_1)"/>
<path d="M91.0439 38.6093C111.744 24.1155 134.853 13.4115 159.294 6.99576L213.5 213.5L91.0439 38.6093Z" fill="url(#paint4_linear_0_1)"/>
<path d="M158.898 7.10028C168.474 4.56688 178.215 2.70304 188.05 1.52224L213.5 213.5L158.898 7.10028Z" fill="url(#paint5_linear_0_1)"/>
<path d="M40.7289 338.929C20.935 311.664 7.87482 280.101 2.61633 246.822C-2.64216 213.542 0.050305 179.49 10.4736 147.451L213.5 213.5L40.7289 338.929Z" fill="url(#paint6_linear_0_1)"/>
<path d="M242.195 334.674H239.102V340H233.793V334.674H222.824V330.895L234.092 314.301H239.102V330.455H242.195V334.674ZM233.793 330.455V326.096C233.793 325.369 233.822 324.314 233.881 322.932C233.939 321.549 233.986 320.746 234.021 320.523H233.881C233.447 321.484 232.926 322.422 232.316 323.336L227.605 330.455H233.793ZM262.041 327.15C262.041 331.639 261.303 334.961 259.826 337.117C258.361 339.273 256.1 340.352 253.041 340.352C250.076 340.352 247.838 339.238 246.326 337.012C244.826 334.785 244.076 331.498 244.076 327.15C244.076 322.615 244.809 319.275 246.273 317.131C247.738 314.975 249.994 313.896 253.041 313.896C256.006 313.896 258.244 315.021 259.756 317.271C261.279 319.521 262.041 322.814 262.041 327.15ZM249.473 327.15C249.473 330.303 249.742 332.564 250.281 333.936C250.832 335.295 251.752 335.975 253.041 335.975C254.307 335.975 255.221 335.283 255.783 333.9C256.346 332.518 256.627 330.268 256.627 327.15C256.627 323.998 256.34 321.736 255.766 320.365C255.203 318.982 254.295 318.291 253.041 318.291C251.764 318.291 250.85 318.982 250.299 320.365C249.748 321.736 249.473 323.998 249.473 327.15ZM268.879 322C268.879 323.488 269.008 324.602 269.266 325.34C269.535 326.066 269.963 326.43 270.549 326.43C271.674 326.43 272.236 324.953 272.236 322C272.236 319.07 271.674 317.605 270.549 317.605C269.963 317.605 269.535 317.969 269.266 318.695C269.008 319.41 268.879 320.512 268.879 322ZM276.666 321.965C276.666 324.66 276.145 326.688 275.102 328.047C274.059 329.395 272.529 330.068 270.514 330.068C268.58 330.068 267.086 329.377 266.031 327.994C264.977 326.6 264.449 324.59 264.449 321.965C264.449 316.609 266.471 313.932 270.514 313.932C272.494 313.932 274.012 314.629 275.066 316.023C276.133 317.406 276.666 319.387 276.666 321.965ZM288.76 314.301L274.504 340H270.285L284.541 314.301H288.76ZM286.879 332.266C286.879 333.754 287.008 334.867 287.266 335.605C287.535 336.332 287.963 336.695 288.549 336.695C289.674 336.695 290.236 335.219 290.236 332.266C290.236 329.336 289.674 327.871 288.549 327.871C287.963 327.871 287.535 328.234 287.266 328.961C287.008 329.676 286.879 330.777 286.879 332.266ZM294.666 332.23C294.666 334.914 294.145 336.936 293.102 338.295C292.059 339.643 290.529 340.316 288.514 340.316C286.58 340.316 285.086 339.625 284.031 338.242C282.977 336.848 282.449 334.844 282.449 332.23C282.449 326.875 284.471 324.197 288.514 324.197C290.494 324.197 292.012 324.895 293.066 326.289C294.133 327.672 294.666 329.652 294.666 332.23Z" fill="white"/>
<path d="M311.08 177H305.648V162.129L305.701 159.686L305.789 157.014C304.887 157.916 304.26 158.508 303.908 158.789L300.955 161.162L298.336 157.893L306.615 151.301H311.08V177ZM320.766 177L330.416 155.906H317.742V151.336H336.182V154.746L326.461 177H320.766ZM342.879 159C342.879 160.488 343.008 161.602 343.266 162.34C343.535 163.066 343.963 163.43 344.549 163.43C345.674 163.43 346.236 161.953 346.236 159C346.236 156.07 345.674 154.605 344.549 154.605C343.963 154.605 343.535 154.969 343.266 155.695C343.008 156.41 342.879 157.512 342.879 159ZM350.666 158.965C350.666 161.66 350.145 163.688 349.102 165.047C348.059 166.395 346.529 167.068 344.514 167.068C342.58 167.068 341.086 166.377 340.031 164.994C338.977 163.6 338.449 161.59 338.449 158.965C338.449 153.609 340.471 150.932 344.514 150.932C346.494 150.932 348.012 151.629 349.066 153.023C350.133 154.406 350.666 156.387 350.666 158.965ZM362.76 151.301L348.504 177H344.285L358.541 151.301H362.76ZM360.879 169.266C360.879 170.754 361.008 171.867 361.266 172.605C361.535 173.332 361.963 173.695 362.549 173.695C363.674 173.695 364.236 172.219 364.236 169.266C364.236 166.336 363.674 164.871 362.549 164.871C361.963 164.871 361.535 165.234 361.266 165.961C361.008 166.676 360.879 167.777 360.879 169.266ZM368.666 169.23C368.666 171.914 368.145 173.936 367.102 175.295C366.059 176.643 364.529 177.316 362.514 177.316C360.58 177.316 359.086 176.625 358.031 175.242C356.977 173.848 356.449 171.844 356.449 169.23C356.449 163.875 358.471 161.197 362.514 161.197C364.494 161.197 366.012 161.895 367.066 163.289C368.133 164.672 368.666 166.652 368.666 169.23Z" fill="white"/>
<path d="M68.0801 252H62.6484V237.129L62.7012 234.686L62.7891 232.014C61.8867 232.916 61.2598 233.508 60.9082 233.789L57.9551 236.162L55.3359 232.893L63.6152 226.301H68.0801V252ZM84.5684 235.582C87.0527 235.582 89.0273 236.279 90.4922 237.674C91.9688 239.068 92.707 240.979 92.707 243.404C92.707 246.275 91.8223 248.484 90.0527 250.031C88.2832 251.578 85.752 252.352 82.459 252.352C79.5996 252.352 77.291 251.889 75.5332 250.963V246.27C76.459 246.762 77.5371 247.166 78.7676 247.482C79.998 247.787 81.1641 247.939 82.2656 247.939C85.582 247.939 87.2402 246.58 87.2402 243.861C87.2402 241.271 85.5234 239.977 82.0898 239.977C81.4688 239.977 80.7832 240.041 80.0332 240.17C79.2832 240.287 78.6738 240.416 78.2051 240.557L76.043 239.396L77.0098 226.301H90.9492V230.906H81.7734L81.2988 235.951L81.9141 235.828C82.6289 235.664 83.5137 235.582 84.5684 235.582ZM99.8789 234C99.8789 235.488 100.008 236.602 100.266 237.34C100.535 238.066 100.963 238.43 101.549 238.43C102.674 238.43 103.236 236.953 103.236 234C103.236 231.07 102.674 229.605 101.549 229.605C100.963 229.605 100.535 229.969 100.266 230.695C100.008 231.41 99.8789 232.512 99.8789 234ZM107.666 233.965C107.666 236.66 107.145 238.688 106.102 240.047C105.059 241.395 103.529 242.068 101.514 242.068C99.5801 242.068 98.0859 241.377 97.0312 239.994C95.9766 238.6 95.4492 236.59 95.4492 233.965C95.4492 228.609 97.4707 225.932 101.514 225.932C103.494 225.932 105.012 226.629 106.066 228.023C107.133 229.406 107.666 231.387 107.666 233.965ZM119.76 226.301L105.504 252H101.285L115.541 226.301H119.76ZM117.879 244.266C117.879 245.754 118.008 246.867 118.266 247.605C118.535 248.332 118.963 248.695 119.549 248.695C120.674 248.695 121.236 247.219 121.236 244.266C121.236 241.336 120.674 239.871 119.549 239.871C118.963 239.871 118.535 240.234 118.266 240.961C118.008 241.676 117.879 242.777 117.879 244.266ZM125.666 244.23C125.666 246.914 125.145 248.936 124.102 250.295C123.059 251.643 121.529 252.316 119.514 252.316C117.58 252.316 116.086 251.625 115.031 250.242C113.977 248.848 113.449 246.844 113.449 244.23C113.449 238.875 115.471 236.197 119.514 236.197C121.494 236.197 123.012 236.895 124.066 238.289C125.133 239.672 125.666 241.652 125.666 244.23Z" fill="white"/>
<path d="M79.3867 139H75.7656V129.086L75.8008 127.457L75.8594 125.676C75.2578 126.277 74.8398 126.672 74.6055 126.859L72.6367 128.441L70.8906 126.262L76.4102 121.867H79.3867V139ZM96.0273 130.434C96.0273 133.426 95.5352 135.641 94.5508 137.078C93.5742 138.516 92.0664 139.234 90.0273 139.234C88.0508 139.234 86.5586 138.492 85.5508 137.008C84.5508 135.523 84.0508 133.332 84.0508 130.434C84.0508 127.41 84.5391 125.184 85.5156 123.754C86.4922 122.316 87.9961 121.598 90.0273 121.598C92.0039 121.598 93.4961 122.348 94.5039 123.848C95.5195 125.348 96.0273 127.543 96.0273 130.434ZM87.6484 130.434C87.6484 132.535 87.8281 134.043 88.1875 134.957C88.5547 135.863 89.168 136.316 90.0273 136.316C90.8711 136.316 91.4805 135.855 91.8555 134.934C92.2305 134.012 92.418 132.512 92.418 130.434C92.418 128.332 92.2266 126.824 91.8438 125.91C91.4688 124.988 90.8633 124.527 90.0273 124.527C89.1758 124.527 88.5664 124.988 88.1992 125.91C87.832 126.824 87.6484 128.332 87.6484 130.434ZM100.586 127C100.586 127.992 100.672 128.734 100.844 129.227C101.023 129.711 101.309 129.953 101.699 129.953C102.449 129.953 102.824 128.969 102.824 127C102.824 125.047 102.449 124.07 101.699 124.07C101.309 124.07 101.023 124.312 100.844 124.797C100.672 125.273 100.586 126.008 100.586 127ZM105.777 126.977C105.777 128.773 105.43 130.125 104.734 131.031C104.039 131.93 103.02 132.379 101.676 132.379C100.387 132.379 99.3906 131.918 98.6875 130.996C97.9844 130.066 97.6328 128.727 97.6328 126.977C97.6328 123.406 98.9805 121.621 101.676 121.621C102.996 121.621 104.008 122.086 104.711 123.016C105.422 123.938 105.777 125.258 105.777 126.977ZM113.84 121.867L104.336 139H101.523L111.027 121.867H113.84ZM112.586 133.844C112.586 134.836 112.672 135.578 112.844 136.07C113.023 136.555 113.309 136.797 113.699 136.797C114.449 136.797 114.824 135.812 114.824 133.844C114.824 131.891 114.449 130.914 113.699 130.914C113.309 130.914 113.023 131.156 112.844 131.641C112.672 132.117 112.586 132.852 112.586 133.844ZM117.777 133.82C117.777 135.609 117.43 136.957 116.734 137.863C116.039 138.762 115.02 139.211 113.676 139.211C112.387 139.211 111.391 138.75 110.688 137.828C109.984 136.898 109.633 135.562 109.633 133.82C109.633 130.25 110.98 128.465 113.676 128.465C114.996 128.465 116.008 128.93 116.711 129.859C117.422 130.781 117.777 132.102 117.777 133.82Z" fill="white"/>
<path d="M223.387 83H219.766V73.0859L219.801 71.457L219.859 69.6758C219.258 70.2773 218.84 70.6719 218.605 70.8594L216.637 72.4414L214.891 70.2617L220.41 65.8672H223.387V83ZM240.027 74.4336C240.027 77.4258 239.535 79.6406 238.551 81.0781C237.574 82.5156 236.066 83.2344 234.027 83.2344C232.051 83.2344 230.559 82.4922 229.551 81.0078C228.551 79.5234 228.051 77.332 228.051 74.4336C228.051 71.4102 228.539 69.1836 229.516 67.7539C230.492 66.3164 231.996 65.5977 234.027 65.5977C236.004 65.5977 237.496 66.3477 238.504 67.8477C239.52 69.3477 240.027 71.543 240.027 74.4336ZM231.648 74.4336C231.648 76.5352 231.828 78.043 232.188 78.957C232.555 79.8633 233.168 80.3164 234.027 80.3164C234.871 80.3164 235.48 79.8555 235.855 78.9336C236.23 78.0117 236.418 76.5117 236.418 74.4336C236.418 72.332 236.227 70.8242 235.844 69.9102C235.469 68.9883 234.863 68.5273 234.027 68.5273C233.176 68.5273 232.566 68.9883 232.199 69.9102C231.832 70.8242 231.648 72.332 231.648 74.4336ZM244.586 71C244.586 71.9922 244.672 72.7344 244.844 73.2266C245.023 73.7109 245.309 73.9531 245.699 73.9531C246.449 73.9531 246.824 72.9688 246.824 71C246.824 69.0469 246.449 68.0703 245.699 68.0703C245.309 68.0703 245.023 68.3125 244.844 68.7969C244.672 69.2734 244.586 70.0078 244.586 71ZM249.777 70.9766C249.777 72.7734 249.43 74.125 248.734 75.0312C248.039 75.9297 247.02 76.3789 245.676 76.3789C244.387 76.3789 243.391 75.918 242.688 74.9961C241.984 74.0664 241.633 72.7266 241.633 70.9766C241.633 67.4062 242.98 65.6211 245.676 65.6211C246.996 65.6211 248.008 66.0859 248.711 67.0156C249.422 67.9375 249.777 69.2578 249.777 70.9766ZM257.84 65.8672L248.336 83H245.523L255.027 65.8672H257.84ZM256.586 77.8438C256.586 78.8359 256.672 79.5781 256.844 80.0703C257.023 80.5547 257.309 80.7969 257.699 80.7969C258.449 80.7969 258.824 79.8125 258.824 77.8438C258.824 75.8906 258.449 74.9141 257.699 74.9141C257.309 74.9141 257.023 75.1562 256.844 75.6406C256.672 76.1172 256.586 76.8516 256.586 77.8438ZM261.777 77.8203C261.777 79.6094 261.43 80.957 260.734 81.8633C260.039 82.7617 259.02 83.2109 257.676 83.2109C256.387 83.2109 255.391 82.75 254.688 81.8281C253.984 80.8984 253.633 79.5625 253.633 77.8203C253.633 74.25 254.98 72.4648 257.676 72.4648C258.996 72.4648 260.008 72.9297 260.711 73.8594C261.422 74.7812 261.777 76.1016 261.777 77.8203Z" fill="white"/>
<path d="M145.016 80.7031C146.12 80.7031 146.997 81.013 147.648 81.6328C148.305 82.2526 148.633 83.1016 148.633 84.1797C148.633 85.4557 148.24 86.4375 147.453 87.125C146.667 87.8125 145.542 88.1562 144.078 88.1562C142.807 88.1562 141.781 87.9505 141 87.5391V85.4531C141.411 85.6719 141.891 85.8516 142.438 85.9922C142.984 86.1276 143.503 86.1953 143.992 86.1953C145.466 86.1953 146.203 85.5911 146.203 84.3828C146.203 83.2318 145.44 82.6562 143.914 82.6562C143.638 82.6562 143.333 82.6849 143 82.7422C142.667 82.7943 142.396 82.8516 142.188 82.9141L141.227 82.3984L141.656 76.5781H147.852V78.625H143.773L143.562 80.8672L143.836 80.8125C144.154 80.7396 144.547 80.7031 145.016 80.7031ZM151.82 80C151.82 80.6615 151.878 81.1562 151.992 81.4844C152.112 81.8073 152.302 81.9688 152.562 81.9688C153.062 81.9688 153.312 81.3125 153.312 80C153.312 78.6979 153.062 78.0469 152.562 78.0469C152.302 78.0469 152.112 78.2083 151.992 78.5312C151.878 78.849 151.82 79.3385 151.82 80ZM155.281 79.9844C155.281 81.1823 155.049 82.0833 154.586 82.6875C154.122 83.2865 153.443 83.5859 152.547 83.5859C151.688 83.5859 151.023 83.2786 150.555 82.6641C150.086 82.0443 149.852 81.151 149.852 79.9844C149.852 77.6042 150.75 76.4141 152.547 76.4141C153.427 76.4141 154.102 76.724 154.57 77.3438C155.044 77.9583 155.281 78.8385 155.281 79.9844ZM160.656 76.5781L154.32 88H152.445L158.781 76.5781H160.656ZM159.82 84.5625C159.82 85.224 159.878 85.7188 159.992 86.0469C160.112 86.3698 160.302 86.5312 160.562 86.5312C161.062 86.5312 161.312 85.875 161.312 84.5625C161.312 83.2604 161.062 82.6094 160.562 82.6094C160.302 82.6094 160.112 82.7708 159.992 83.0938C159.878 83.4115 159.82 83.901 159.82 84.5625ZM163.281 84.5469C163.281 85.7396 163.049 86.638 162.586 87.2422C162.122 87.8411 161.443 88.1406 160.547 88.1406C159.688 88.1406 159.023 87.8333 158.555 87.2188C158.086 86.599 157.852 85.7083 157.852 84.5469C157.852 82.1667 158.75 80.9766 160.547 80.9766C161.427 80.9766 162.102 81.2865 162.57 81.9062C163.044 82.5208 163.281 83.401 163.281 84.5469Z" fill="white"/>
<defs>
<linearGradient id="paint0_linear_0_1" x1="213.5" y1="0" x2="213.5" y2="427" gradientUnits="userSpaceOnUse">
<stop stop-color="#FF005B"/>
<stop offset="1" stop-color="white" stop-opacity="0.07"/>
</linearGradient>
<linearGradient id="paint1_linear_0_1" x1="213.5" y1="0" x2="213.5" y2="427" gradientUnits="userSpaceOnUse">
<stop stop-color="#B66BFF" stop-opacity="0.47"/>
<stop offset="1" stop-color="white" stop-opacity="0"/>
</linearGradient>
<linearGradient id="paint2_linear_0_1" x1="213" y1="208.5" x2="365.5" y2="-16.5" gradientUnits="userSpaceOnUse">
<stop stop-color="#00A4FF" stop-opacity="0.46"/>
<stop offset="1" stop-color="white" stop-opacity="0.07"/>
</linearGradient>
<linearGradient id="paint3_linear_0_1" x1="246" y1="247.5" x2="54.5" y2="69.5" gradientUnits="userSpaceOnUse">
<stop stop-color="#FF00B8"/>
<stop offset="1" stop-color="white" stop-opacity="0.07"/>
</linearGradient>
<linearGradient id="paint4_linear_0_1" x1="213.5" y1="0" x2="213.5" y2="427" gradientUnits="userSpaceOnUse">
<stop stop-color="#0F003C"/>
<stop offset="1" stop-color="white" stop-opacity="0.07"/>
</linearGradient>
<linearGradient id="paint5_linear_0_1" x1="213.5" y1="0" x2="213.5" y2="427" gradientUnits="userSpaceOnUse">
<stop stop-color="#91D8FF" stop-opacity="0.42"/>
<stop offset="1" stop-color="white" stop-opacity="0.07"/>
</linearGradient>
<linearGradient id="paint6_linear_0_1" x1="232.5" y1="191.5" x2="39" y2="312" gradientUnits="userSpaceOnUse">
<stop stop-color="#FF0000" stop-opacity="0.59"/>
<stop offset="1" stop-color="white" stop-opacity="0.07"/>
</linearGradient>
</defs>
</svg>
