<svg width="346" height="1184" viewBox="0 0 346 1184" fill="none" xmlns="http://www.w3.org/2000/svg">
<circle cx="193.538" cy="164.984" r="61" transform="rotate(91.2948 193.538 164.984)" stroke="#FF005B" stroke-width="8"/>
<circle cx="187.12" cy="448.912" r="61" transform="rotate(91.2948 187.12 448.912)" stroke="#FF2BD0" stroke-width="8"/>
<circle cx="180.658" cy="734.838" r="61" transform="rotate(91.2948 180.658 734.838)" stroke="#A839FF" stroke-width="8"/>
<circle cx="174.218" cy="1019.77" r="61" transform="rotate(91.2948 174.218 1019.77)" stroke="#6934FF" stroke-width="8"/>
<ellipse opacity="0.5" cx="193.647" cy="164.876" rx="56.8725" ry="57.0318" transform="rotate(91.2948 193.647 164.876)" fill="url(#paint0_linear_0_1)"/>
<path d="M200.582 192.714C199.111 192.661 197.93 192.554 197.04 192.394C196.18 192.267 195.405 191.999 194.715 191.59C194.056 191.214 193.293 190.626 192.425 189.826C191.126 188.562 190 187.369 189.048 186.246C188.127 185.156 187.199 184.242 186.265 183.503C185.33 182.797 184.191 182.42 182.848 182.371C179.906 182.265 177.414 181.663 175.372 180.564C173.364 179.435 171.751 178 170.533 176.259C169.316 174.486 168.441 172.549 167.909 170.448C167.408 168.349 167.195 166.276 167.269 164.229C167.341 162.215 167.75 160.196 168.496 158.174C169.274 156.12 170.382 154.255 171.82 152.578C173.289 150.902 175.098 149.574 177.247 148.595C179.396 147.616 181.893 147.178 184.739 147.281C187.65 147.386 190.141 148.004 192.213 149.136C194.286 150.267 195.962 151.737 197.242 153.544C198.522 155.319 199.446 157.242 200.011 159.312C200.577 161.381 200.823 163.424 200.751 165.438C200.693 167.037 200.41 168.66 199.902 170.307C199.396 171.922 198.667 173.48 197.716 174.983C196.767 176.454 195.582 177.772 194.163 178.937C192.777 180.072 191.176 180.959 189.36 181.598C190.288 181.631 191.101 181.725 191.8 181.878C192.531 182.032 193.241 182.298 193.932 182.675C194.622 183.085 195.368 183.704 196.171 184.533C197.253 185.597 198.102 186.46 198.719 187.123C199.367 187.787 199.894 188.286 200.298 188.621C200.701 188.988 201.077 189.226 201.425 189.334C201.804 189.476 202.249 189.556 202.761 189.575L202.645 192.788L200.582 192.714ZM183.934 178.904C185.597 178.964 187.002 178.615 188.15 177.856C189.3 177.065 190.234 176.026 190.953 174.739C191.672 173.452 192.203 172.046 192.546 170.522C192.922 168.966 193.137 167.453 193.19 165.982C193.27 163.775 193.151 161.754 192.833 159.917C192.515 158.08 191.98 156.492 191.228 155.152C190.477 153.78 189.49 152.72 188.269 151.971C187.08 151.192 185.654 150.788 183.989 150.76C182.325 150.732 180.918 151.129 179.768 151.952C178.618 152.743 177.684 153.798 176.964 155.117C176.277 156.405 175.761 157.828 175.417 159.384C175.072 160.941 174.874 162.455 174.82 163.926C174.766 165.429 174.868 167.033 175.127 168.74C175.417 170.447 175.903 172.066 176.585 173.596C177.266 175.125 178.197 176.376 179.379 177.347C180.593 178.319 182.111 178.838 183.934 178.904ZM205.686 182.427L205.801 179.262C206.537 179.256 207.148 179.182 207.634 179.04C208.151 178.898 208.548 178.544 208.825 177.978C209.134 177.413 209.311 176.49 209.357 175.211L210.052 155.976L204.711 158.905L203.088 155.964L214.362 148.35L217.24 148.454L216.284 174.933C216.253 175.796 216.207 176.627 216.146 177.426C216.117 178.225 216.063 178.832 215.984 179.245C216.498 179.199 217.139 179.191 217.906 179.218C218.707 179.215 219.267 179.219 219.587 179.231L219.453 182.925L205.686 182.427Z" fill="#FF005B"/>
<ellipse opacity="0.5" cx="187.23" cy="448.803" rx="56.8725" ry="57.0318" transform="rotate(91.2948 187.23 448.803)" fill="url(#paint1_linear_0_1)"/>
<ellipse opacity="0.5" cx="180.768" cy="734.731" rx="56.8725" ry="57.0318" transform="rotate(91.2948 180.768 734.731)" fill="url(#paint2_linear_0_1)"/>
<ellipse opacity="0.5" cx="174.327" cy="1019.66" rx="56.8725" ry="57.0318" transform="rotate(91.2948 174.327 1019.66)" fill="url(#paint3_linear_0_1)"/>
<path d="M190.168 476.51C188.697 476.457 187.516 476.35 186.625 476.19C185.765 476.063 184.99 475.795 184.301 475.385C183.642 475.009 182.878 474.422 182.011 473.622C180.711 472.358 179.586 471.165 178.634 470.041C177.712 468.952 176.785 468.037 175.851 467.299C174.916 466.593 173.777 466.216 172.433 466.167C169.491 466.061 167 465.459 164.958 464.36C162.949 463.231 161.336 461.796 160.118 460.055C158.901 458.282 158.027 456.345 157.494 454.244C156.993 452.145 156.78 450.072 156.854 448.025C156.927 446.011 157.336 443.992 158.081 441.97C158.86 439.916 159.968 438.051 161.405 436.374C162.875 434.698 164.684 433.37 166.833 432.391C168.981 431.412 171.479 430.974 174.325 431.077C177.235 431.182 179.726 431.8 181.799 432.932C183.871 434.063 185.547 435.532 186.827 437.34C188.108 439.115 189.031 441.038 189.597 443.108C190.162 445.177 190.409 447.22 190.336 449.234C190.278 450.833 189.996 452.456 189.488 454.103C188.981 455.718 188.253 457.276 187.302 458.779C186.352 460.25 185.168 461.568 183.749 462.733C182.363 463.868 180.762 464.755 178.946 465.394C179.873 465.427 180.686 465.521 181.385 465.674C182.116 465.828 182.827 466.094 183.518 466.471C184.207 466.881 184.954 467.5 185.756 468.329C186.838 469.393 187.688 470.256 188.304 470.919C188.953 471.583 189.479 472.082 189.883 472.417C190.286 472.784 190.662 473.021 191.01 473.13C191.389 473.272 191.835 473.352 192.347 473.37L192.23 476.584L190.168 476.51ZM173.519 462.7C175.182 462.76 176.588 462.411 177.736 461.652C178.885 460.861 179.819 459.822 180.538 458.535C181.257 457.248 181.788 455.842 182.131 454.317C182.508 452.762 182.723 451.249 182.776 449.778C182.855 447.571 182.736 445.55 182.418 443.713C182.1 441.876 181.565 440.288 180.813 438.948C180.062 437.576 179.076 436.516 177.854 435.767C176.665 434.988 175.239 434.584 173.575 434.556C171.911 434.528 170.504 434.925 169.353 435.748C168.204 436.539 167.269 437.594 166.549 438.913C165.862 440.201 165.347 441.624 165.002 443.18C164.658 444.737 164.459 446.251 164.406 447.722C164.352 449.225 164.454 450.829 164.712 452.536C165.003 454.243 165.489 455.862 166.17 457.392C166.851 458.921 167.783 460.172 168.965 461.143C170.178 462.115 171.696 462.634 173.519 462.7ZM193.305 466.152C193.365 464.489 193.627 463.01 194.09 461.714C194.585 460.419 195.203 459.256 195.945 458.226C196.718 457.198 197.553 456.251 198.449 455.387C199.377 454.524 200.32 453.677 201.278 452.847C203.691 450.757 205.409 448.85 206.432 447.126C207.487 445.403 208.046 443.678 208.108 441.951C208.145 440.927 208.053 439.931 207.832 438.963C207.61 437.994 207.175 437.194 206.525 436.562C205.877 435.898 204.945 435.56 203.728 435.549C202.865 435.517 202.074 435.697 201.355 436.087C200.67 436.447 200.141 436.892 199.77 437.423C200.109 437.787 200.334 438.212 200.444 438.696C200.587 439.182 200.652 439.6 200.639 439.952C200.627 440.304 200.499 440.731 200.257 441.235C200.016 441.707 199.649 442.11 199.156 442.444C198.696 442.78 198.066 442.933 197.267 442.904C196.278 442.804 195.523 442.409 195.004 441.718C194.517 441.028 194.29 440.219 194.323 439.292C194.35 438.556 194.602 437.781 195.079 436.965C195.558 436.118 196.259 435.327 197.182 434.592C198.107 433.825 199.217 433.224 200.514 432.791C201.843 432.326 203.356 432.125 205.05 432.186C206.33 432.232 207.587 432.438 208.823 432.803C210.09 433.169 211.239 433.722 212.269 434.464C213.299 435.206 214.097 436.163 214.663 437.336C215.261 438.511 215.529 439.945 215.468 441.64C215.439 442.44 215.265 443.282 214.945 444.167C214.626 445.02 214.063 445.96 213.258 446.988C212.453 447.983 211.339 449.128 209.916 450.421C208.492 451.715 206.661 453.218 204.421 454.93C202.61 456.306 201.268 457.57 200.394 458.723C199.52 459.877 198.991 460.77 198.808 461.404L208.201 461.983C208.936 462.042 209.561 462.016 210.077 461.907C210.627 461.767 211.053 461.478 211.357 461.04C211.694 460.572 211.879 459.891 211.911 458.995L214.981 459.106L214.315 466.911L193.305 466.152Z" fill="#FF2BD0"/>
<path d="M183.194 762.92C181.723 762.866 180.542 762.76 179.651 762.6C178.791 762.472 178.017 762.204 177.327 761.795C176.668 761.419 175.905 760.831 175.037 760.031C173.738 758.768 172.612 757.574 171.66 756.451C170.739 755.361 169.811 754.447 168.877 753.709C167.942 753.003 166.803 752.625 165.46 752.577C162.518 752.471 160.026 751.868 157.984 750.77C155.976 749.641 154.362 748.206 153.144 746.465C151.928 744.691 151.053 742.755 150.52 740.654C150.02 738.555 149.806 736.482 149.88 734.435C149.953 732.42 150.362 730.402 151.108 728.379C151.886 726.326 152.994 724.461 154.432 722.784C155.901 721.107 157.71 719.78 159.859 718.801C162.008 717.822 164.505 717.384 167.351 717.486C170.261 717.591 172.753 718.21 174.825 719.341C176.898 720.473 178.574 721.942 179.853 723.75C181.134 725.525 182.057 727.447 182.623 729.517C183.189 731.587 183.435 733.629 183.363 735.644C183.305 737.243 183.022 738.866 182.514 740.512C182.008 742.127 181.279 743.686 180.328 745.189C179.378 746.659 178.194 747.977 176.775 749.143C175.389 750.278 173.788 751.165 171.972 751.803C172.899 751.837 173.713 751.93 174.411 752.084C175.142 752.238 175.853 752.504 176.544 752.881C177.234 753.29 177.98 753.91 178.783 754.739C179.865 755.803 180.714 756.666 181.331 757.329C181.979 757.993 182.506 758.492 182.91 758.827C183.313 759.193 183.688 759.431 184.037 759.54C184.416 759.682 184.861 759.762 185.373 759.78L185.257 762.994L183.194 762.92ZM166.546 749.11C168.209 749.17 169.614 748.82 170.762 748.061C171.912 747.27 172.846 746.231 173.565 744.944C174.283 743.657 174.815 742.252 175.158 740.727C175.534 739.172 175.749 737.658 175.802 736.187C175.882 733.981 175.763 731.959 175.445 730.123C175.127 728.286 174.592 726.698 173.839 725.358C173.089 723.986 172.102 722.925 170.88 722.177C169.692 721.397 168.265 720.994 166.601 720.965C164.937 720.937 163.53 721.335 162.379 722.158C161.23 722.949 160.296 724.004 159.575 725.323C158.889 726.611 158.373 728.033 158.028 729.59C157.684 731.146 157.485 732.66 157.432 734.131C157.378 735.634 157.48 737.239 157.739 738.945C158.029 740.653 158.515 742.272 159.196 743.801C159.878 745.331 160.809 746.581 161.991 747.552C163.205 748.525 164.723 749.044 166.546 749.11ZM196.521 753.698C194.123 753.612 192.169 753.189 190.659 752.43C189.151 751.639 188.048 750.687 187.352 749.573C186.656 748.459 186.327 747.358 186.367 746.271C186.401 745.312 186.719 744.491 187.32 743.808C187.954 743.094 188.768 742.74 189.76 742.743C190.561 742.74 191.178 742.923 191.613 743.291C192.048 743.659 192.353 744.086 192.528 744.572C192.702 745.059 192.782 745.51 192.767 745.926C192.756 746.246 192.678 746.611 192.535 747.022C192.394 747.401 192.188 747.762 191.92 748.105C192.25 748.725 192.808 749.226 193.595 749.606C194.415 749.956 195.272 750.147 196.168 750.179C198.183 750.252 199.723 749.699 200.791 748.521C201.858 747.343 202.424 745.858 202.489 744.068C202.528 742.98 202.359 741.885 201.983 740.783C201.606 739.681 200.919 738.759 199.921 738.019C198.924 737.246 197.498 736.843 195.642 736.808C195.418 736.8 195.018 736.801 194.441 736.812C193.864 736.824 193.431 736.84 193.142 736.862L193.267 733.408C193.522 733.449 193.761 733.474 193.985 733.482C194.209 733.49 194.433 733.498 194.657 733.506C196.064 733.557 197.272 733.344 198.282 732.868C199.292 732.393 200.069 731.716 200.613 730.839C201.189 729.963 201.514 728.934 201.589 727.752C201.661 726.634 201.552 725.654 201.263 724.811C201.006 723.937 200.551 723.248 199.896 722.744C199.274 722.241 198.419 721.97 197.332 721.931C196.469 721.9 195.678 722.079 194.959 722.47C194.24 722.86 193.744 723.306 193.47 723.809C193.745 724.171 193.922 724.594 194 725.077C194.112 725.529 194.163 725.899 194.152 726.187C194.138 726.571 194.01 727.014 193.768 727.518C193.559 727.991 193.208 728.394 192.716 728.729C192.223 729.063 191.578 729.2 190.78 729.139C189.789 729.072 189.051 728.693 188.563 728.003C188.076 727.313 187.849 726.504 187.882 725.576C187.917 724.617 188.323 723.575 189.1 722.45C189.877 721.326 191.031 720.391 192.563 719.645C194.096 718.868 195.982 718.52 198.221 718.601C200.203 718.673 201.984 719.009 203.564 719.61C205.175 720.213 206.422 721.155 207.304 722.435C208.219 723.717 208.638 725.397 208.563 727.476C208.533 728.307 208.259 729.242 207.741 730.28C207.257 731.287 206.471 732.203 205.385 733.029C204.298 733.854 202.868 734.443 201.094 734.795C204.145 735.45 206.359 736.634 207.738 738.349C209.149 740.065 209.818 741.947 209.744 743.993C209.665 746.168 209.039 748.002 207.864 749.497C206.723 750.961 205.162 752.057 203.182 752.786C201.236 753.484 199.015 753.789 196.521 753.698Z" fill="#A839FF"/>
<path d="M177.754 1047.87C176.283 1047.82 175.102 1047.71 174.211 1047.55C173.351 1047.42 172.576 1047.15 171.887 1046.74C171.228 1046.37 170.464 1045.78 169.597 1044.98C168.297 1043.72 167.172 1042.52 166.22 1041.4C165.298 1040.31 164.371 1039.4 163.437 1038.66C162.502 1037.95 161.363 1037.57 160.019 1037.53C157.077 1037.42 154.585 1036.82 152.544 1035.72C150.535 1034.59 148.922 1033.15 147.704 1031.41C146.487 1029.64 145.612 1027.7 145.08 1025.6C144.579 1023.5 144.366 1021.43 144.44 1019.38C144.513 1017.37 144.922 1015.35 145.667 1013.33C146.446 1011.28 147.554 1009.41 148.991 1007.73C150.461 1006.06 152.27 1004.73 154.419 1003.75C156.567 1002.77 159.065 1002.33 161.911 1002.44C164.821 1002.54 167.312 1003.16 169.385 1004.29C171.457 1005.42 173.133 1006.89 174.413 1008.7C175.694 1010.47 176.617 1012.4 177.183 1014.47C177.748 1016.54 177.995 1018.58 177.922 1020.59C177.864 1022.19 177.582 1023.81 177.074 1025.46C176.567 1027.08 175.839 1028.64 174.888 1030.14C173.938 1031.61 172.754 1032.93 171.335 1034.09C169.949 1035.23 168.348 1036.11 166.532 1036.75C167.459 1036.79 168.272 1036.88 168.971 1037.03C169.702 1037.19 170.413 1037.45 171.104 1037.83C171.793 1038.24 172.539 1038.86 173.342 1039.69C174.424 1040.75 175.274 1041.62 175.89 1042.28C176.539 1042.94 177.065 1043.44 177.469 1043.78C177.872 1044.14 178.248 1044.38 178.596 1044.49C178.975 1044.63 179.421 1044.71 179.932 1044.73L179.816 1047.94L177.754 1047.87ZM161.105 1034.06C162.768 1034.12 164.174 1033.77 165.322 1033.01C166.471 1032.22 167.405 1031.18 168.124 1029.89C168.843 1028.61 169.374 1027.2 169.717 1025.68C170.094 1024.12 170.308 1022.61 170.362 1021.14C170.441 1018.93 170.322 1016.91 170.004 1015.07C169.686 1013.24 169.151 1011.65 168.399 1010.31C167.648 1008.93 166.662 1007.87 165.44 1007.13C164.251 1006.35 162.825 1005.94 161.161 1005.91C159.497 1005.89 158.09 1006.28 156.939 1007.11C155.79 1007.9 154.855 1008.95 154.135 1010.27C153.448 1011.56 152.932 1012.98 152.588 1014.54C152.244 1016.1 152.045 1017.61 151.992 1019.08C151.938 1020.58 152.04 1022.19 152.298 1023.89C152.589 1025.6 153.075 1027.22 153.756 1028.75C154.437 1030.28 155.369 1031.53 156.55 1032.5C157.764 1033.47 159.282 1033.99 161.105 1034.06ZM199.259 1030.3C199.228 1031.16 199.182 1031.99 199.121 1032.79C199.06 1033.59 198.991 1034.19 198.912 1034.61C199.458 1034.56 200.114 1034.55 200.882 1034.58C201.65 1034.58 202.195 1034.58 202.514 1034.59L202.381 1038.29L188.71 1037.79L188.824 1034.63L189.112 1034.64C189.848 1034.66 190.474 1034.61 190.992 1034.47C191.541 1034.33 191.97 1033.97 192.279 1033.41C192.62 1032.81 192.814 1031.87 192.86 1030.59L192.909 1029.25L179.909 1028.78L180.072 1024.27L197.289 1003.71L200.215 1003.82L199.445 1025.16L204.146 1025.33L203.99 1029.65L199.289 1029.48L199.259 1030.3ZM193.424 1013.66L184.532 1024.48L193.068 1024.84L193.52 1013.66L193.424 1013.66Z" fill="#6934FF"/>
<circle cx="151.485" cy="1161.22" r="16" transform="rotate(92.1523 151.485 1161.22)" fill="#6934FF"/>
<path d="M183.531 321.833C163.781 321.09 144.378 316.271 126.429 307.651C108.481 299.031 92.3388 286.778 78.9244 271.591C65.5101 256.405 55.0863 238.584 48.2482 219.144C41.4101 199.704 38.2916 179.026 39.0709 158.292C39.8501 137.558 44.5117 117.173 52.7896 98.3009C61.0676 79.429 72.7996 62.4398 87.316 48.3034C101.832 34.1669 118.849 23.16 137.394 15.9111C155.938 8.66217 175.648 5.31324 195.398 6.05548L194.212 37.6332C178.412 37.0394 162.644 39.7185 147.808 45.5177C132.972 51.3168 119.359 60.1223 107.746 71.4315C96.1326 82.7407 86.747 96.332 80.1247 111.43C73.5023 126.527 69.773 142.835 69.1496 159.422C68.5262 176.01 71.021 192.552 76.4915 208.104C81.9619 223.656 90.301 237.913 101.032 250.062C111.764 262.211 124.678 272.013 139.036 278.91C153.395 285.806 168.918 289.661 184.718 290.255L183.531 321.833Z" fill="#FF005B"/>
<path d="M168.545 893.673C148.729 892.929 129.262 888.081 111.255 879.408C93.248 870.736 77.0535 858.407 63.5962 843.126C50.139 827.845 39.6825 809.912 32.8239 790.35C25.9652 770.788 22.8387 749.98 23.6229 729.115C24.407 708.249 29.0865 687.735 37.3941 668.742C45.7016 649.75 57.4746 632.652 72.0409 618.425C86.6071 604.197 103.681 593.119 122.289 585.822C140.896 578.525 160.672 575.153 180.488 575.898L179.293 607.675C163.441 607.079 147.62 609.777 132.734 615.615C117.848 621.452 104.189 630.315 92.536 641.697C80.883 653.079 71.4646 666.757 64.8185 681.951C58.1725 697.145 54.4289 713.556 53.8016 730.249C53.1742 746.941 55.6754 763.587 61.1624 779.237C66.6493 794.887 75.0144 809.233 85.7803 821.458C96.5461 833.683 109.502 843.546 123.907 850.484C138.313 857.422 153.887 861.3 169.739 861.896L168.545 893.673Z" fill="#A839FF"/>
<path d="M184.244 290.825C204.032 291.542 223.479 296.341 241.475 304.948C259.471 313.555 275.664 325.801 289.129 340.986C302.595 356.172 313.068 374.001 319.953 393.454C326.837 412.907 329.997 433.604 329.252 454.363C328.508 475.122 323.873 495.537 315.613 514.441C307.352 533.345 295.628 550.369 281.11 564.54C266.592 578.712 249.563 589.754 230.997 597.035C212.431 604.317 192.611 608.349 172.824 607.631L174.037 575.362C189.867 575.936 205.659 573.233 220.512 567.408C235.365 561.583 248.988 552.75 260.603 541.413C272.217 530.075 281.597 516.456 288.205 501.333C294.813 486.209 298.521 469.878 299.117 453.271C299.712 436.664 297.184 420.106 291.677 404.544C286.169 388.981 277.79 374.718 267.018 362.569C256.246 350.421 243.292 340.624 228.895 333.738C214.498 326.853 198.94 323.014 183.11 322.44L184.244 290.825Z" fill="#FF2BD0"/>
<path d="M162.536 861.26C182.323 861.977 201.77 866.776 219.766 875.383C237.762 883.99 253.955 896.236 267.421 911.421C280.886 926.607 291.36 944.436 298.244 963.889C305.128 983.342 308.288 1004.04 307.544 1024.8C306.799 1045.56 302.164 1065.97 293.904 1084.88C285.644 1103.78 273.92 1120.8 259.401 1134.98C244.883 1149.15 227.855 1160.19 209.288 1167.47C190.722 1174.75 170.982 1178.13 151.195 1177.41L152.329 1145.8C168.159 1146.37 183.951 1143.67 198.804 1137.84C213.657 1132.02 227.279 1123.18 238.894 1111.85C250.509 1100.51 259.888 1086.89 266.496 1071.77C273.104 1056.64 276.812 1040.31 277.408 1023.71C278.004 1007.1 275.476 990.541 269.968 974.979C264.461 959.416 256.082 945.153 245.31 933.004C234.537 920.856 221.583 911.059 207.186 904.173C192.789 897.288 177.231 893.449 161.402 892.875L162.536 861.26Z" fill="#6934FF"/>
<ellipse cx="195.463" cy="22.4102" rx="16" ry="15.5" transform="rotate(90.1909 195.463 22.4102)" fill="#FF005B"/>
<defs>
<linearGradient id="paint0_linear_0_1" x1="193.647" y1="107.845" x2="193.647" y2="221.908" gradientUnits="userSpaceOnUse">
<stop stop-color="white" stop-opacity="0.4"/>
<stop offset="1" stop-color="white" stop-opacity="0.29"/>
</linearGradient>
<linearGradient id="paint1_linear_0_1" x1="187.23" y1="391.771" x2="187.23" y2="505.835" gradientUnits="userSpaceOnUse">
<stop stop-color="white" stop-opacity="0.4"/>
<stop offset="1" stop-color="white" stop-opacity="0.29"/>
</linearGradient>
<linearGradient id="paint2_linear_0_1" x1="180.768" y1="677.699" x2="180.768" y2="791.763" gradientUnits="userSpaceOnUse">
<stop stop-color="white" stop-opacity="0.4"/>
<stop offset="1" stop-color="white" stop-opacity="0.29"/>
</linearGradient>
<linearGradient id="paint3_linear_0_1" x1="174.327" y1="962.627" x2="174.327" y2="1076.69" gradientUnits="userSpaceOnUse">
<stop stop-color="white" stop-opacity="0.4"/>
<stop offset="1" stop-color="white" stop-opacity="0.29"/>
</linearGradient>
</defs>
</svg>
